<svg width="128" height="128" viewBox="0 0 128 128" fill="none" xmlns="http://www.w3.org/2000/svg">
<path d="M110.308 107.965C93.4679 125.018 81.258 128.852 55.6934 127.854L88.3027 69.7002L110.308 107.965ZM49.5986 126.723C26.634 120.605 17.1895 111.833 5.04004 88.8789L70.7393 87.9541L49.5986 126.723ZM125.349 46.2402C130.971 69.75 127.884 82.3887 113.838 104.188L81.8447 45.6787L125.349 46.2402ZM46.3848 82.5303L2.87695 82.4902C-3.01589 59.0493 -0.073316 46.3744 13.7207 24.4082L46.3848 82.5303ZM17.6367 19.8271C34.5484 2.84762 46.7746 -0.93238 72.335 0.178711L39.4795 58.1885L17.6367 19.8271ZM77.6123 0.905273C100.561 7.08399 109.983 15.8805 122.074 38.8662L56.373 39.6172L77.6123 0.905273Z" fill="url(#paint0_linear_8_2)"/>
<defs>
<linearGradient id="paint0_linear_8_2" x1="0" y1="0" x2="129.128" y2="1.14923" gradientUnits="userSpaceOnUse">
<stop stop-color="#3F3B52"/>
<stop offset="1" stop-color="#736D94"/>
</linearGradient>
</defs>
</svg>
