<svg width="16" height="17" viewBox="0 0 16 17" fill="none" xmlns="http://www.w3.org/2000/svg">
<g clip-path="url(#clip0_1_133)">
<path d="M8 0.5C3.589 0.5 0 4.089 0 8.5C0 12.911 3.589 16.5 8 16.5C12.411 16.5 16 12.911 16 8.5C16 4.089 12.411 0.5 8 0.5ZM8 14.5C4.691 14.5 2 11.809 2 8.5C2 5.191 4.691 2.5 8 2.5C11.309 2.5 14 5.191 14 8.5C14 11.809 11.309 14.5 8 14.5ZM8.00195 9.5C8.32395 9.5 8.62103 9.31201 8.66003 8.83301L8.99597 5.52301C9.03497 5.04301 8.73602 4.5 7.99902 4.5C7.26202 4.5 6.96303 5.043 7.00403 5.522L7.34399 8.832C7.38299 9.312 7.67995 9.5 8.00195 9.5ZM8 10.5C7.447 10.5 7 10.948 7 11.5C7 12.052 7.447 12.5 8 12.5C8.553 12.5 9 12.052 9 11.5C9 10.948 8.553 10.5 8 10.5Z" fill="#CAC7D8"/>
</g>
<defs>
<clipPath id="clip0_1_133">
<rect width="16" height="16" fill="white" transform="translate(0 0.5)"/>
</clipPath>
</defs>
</svg>
