<svg width="20" height="20" viewBox="0 0 20 20" fill="none" xmlns="http://www.w3.org/2000/svg">
<path d="M9.99999 8.64201L16.861 1.78201C16.9496 1.69069 17.0555 1.6179 17.1725 1.56788C17.2895 1.51785 17.4153 1.49159 17.5425 1.49061C17.6698 1.48964 17.7959 1.51397 17.9137 1.56219C18.0315 1.61041 18.1385 1.68157 18.2285 1.77151C18.3185 1.86146 18.3897 1.9684 18.438 2.08612C18.4863 2.20385 18.5108 2.33 18.5099 2.45724C18.509 2.58449 18.4828 2.71029 18.4329 2.82733C18.3829 2.94437 18.3102 3.05032 18.219 3.13901L11.358 10L18.218 16.861C18.3093 16.9496 18.3821 17.0555 18.4321 17.1725C18.4821 17.2895 18.5084 17.4153 18.5094 17.5426C18.5104 17.6698 18.486 17.796 18.4378 17.9137C18.3896 18.0315 18.3184 18.1385 18.2285 18.2285C18.1385 18.3185 18.0316 18.3897 17.9139 18.438C17.7961 18.4864 17.67 18.5108 17.5427 18.5099C17.4155 18.509 17.2897 18.4828 17.1727 18.4329C17.0556 18.383 16.9497 18.3103 16.861 18.219L9.99999 11.358L3.13899 18.218C2.95815 18.3938 2.71541 18.4913 2.46324 18.4896C2.21107 18.4878 1.96971 18.3869 1.79133 18.2087C1.61295 18.0304 1.51186 17.7891 1.50993 17.537C1.50799 17.2848 1.60536 17.042 1.78099 16.861L8.64199 10L1.78199 3.13901C1.69061 3.05045 1.61775 2.94461 1.56764 2.82765C1.51754 2.71068 1.49118 2.58492 1.49012 2.45768C1.48905 2.33044 1.51329 2.20425 1.56142 2.08646C1.60956 1.96867 1.68063 1.86163 1.77051 1.77155C1.86039 1.68148 1.96727 1.61017 2.08496 1.56177C2.20264 1.51337 2.32877 1.48886 2.45602 1.48964C2.58326 1.49043 2.70908 1.5165 2.82615 1.56635C2.94323 1.6162 3.04923 1.68883 3.13799 1.78001L9.99999 8.64201Z" fill="#CAC7D8"/>
</svg>
