<svg width="138" height="40" viewBox="0 0 138 40" fill="none" xmlns="http://www.w3.org/2000/svg">
<path d="M34.4711 33.7389C29.2088 39.068 25.3925 40.2658 17.4037 39.9537L27.5952 21.7809L34.4711 33.7389ZM15.4995 39.6002C8.32307 37.6884 5.37132 34.9467 1.57465 27.774L22.1059 27.486L15.4995 39.6002ZM39.1723 14.4498C40.9292 21.7964 39.9641 25.7469 35.5746 32.5592L25.5766 14.275L39.1723 14.4498ZM57.6362 8.40881C59.1057 8.40881 60.458 8.6099 61.6928 9.01135C62.9276 9.41286 64.011 10.0004 64.9428 10.7731C65.8746 11.5382 66.6246 12.4811 67.1928 13.6022C67.761 14.7234 68.1058 16.0077 68.227 17.4547H61.8178C61.7724 16.9244 61.6515 16.4432 61.4545 16.0114C61.2651 15.5795 60.9995 15.2087 60.6586 14.8981C60.3253 14.5799 59.9201 14.3372 59.4428 14.1705C58.9656 13.9964 58.4238 13.9088 57.8178 13.9088C56.7574 13.9089 55.8602 14.1672 55.1254 14.6823C54.3982 15.1974 53.845 15.9359 53.4662 16.8981C53.0951 17.8602 52.9086 19.0155 52.9086 20.3639C52.9086 21.7879 53.0983 22.981 53.477 23.943C53.8634 24.8975 54.4206 25.6173 55.1479 26.1022C55.8751 26.5794 56.7502 26.818 57.7729 26.818C58.3561 26.818 58.8792 26.7461 59.3412 26.6022C59.8032 26.4507 60.2046 26.2349 60.5453 25.9547C60.8863 25.6744 61.1633 25.3369 61.3754 24.943C61.5949 24.5417 61.7421 24.0911 61.8178 23.5914L68.227 23.6364C68.1512 24.6212 67.8752 25.6253 67.3979 26.6481C66.9206 27.6632 66.2424 28.6028 65.3637 29.4664C64.4926 30.3223 63.413 31.0111 62.1254 31.5338C60.8375 32.0565 59.3407 32.318 57.6362 32.318C55.4999 32.318 53.5831 31.8596 51.8862 30.943C50.197 30.0264 48.8602 28.6781 47.8754 26.8981C46.8982 25.1178 46.4087 22.9396 46.4086 20.3639C46.4086 17.773 46.9086 15.5907 47.9086 13.818C48.9086 12.0377 50.2576 10.6929 51.9545 9.78381C53.6514 8.86723 55.5454 8.40883 57.6362 8.40881ZM109.568 14.318C110.886 14.318 112.08 14.5232 113.148 14.9323C114.216 15.3413 115.129 15.9362 115.886 16.7164C116.644 17.489 117.227 18.428 117.636 19.5338C118.045 20.6399 118.25 21.8867 118.25 23.2731V24.7272H106.886V24.9996C106.886 25.5601 107.004 26.0603 107.239 26.4996C107.474 26.939 107.811 27.2838 108.25 27.5338C108.69 27.7837 109.22 27.9088 109.841 27.9088C110.273 27.9088 110.667 27.8483 111.023 27.7272C111.386 27.606 111.697 27.4319 111.955 27.2047C112.212 26.9699 112.402 26.6896 112.523 26.3639H118.25C118.053 27.576 117.587 28.6292 116.852 29.5231C116.117 30.4093 115.144 31.0991 113.932 31.5914C112.728 32.0763 111.318 32.318 109.705 32.318C107.841 32.318 106.235 31.9618 104.886 31.2496C103.545 30.5299 102.511 29.4996 101.784 28.1588C101.064 26.8104 100.705 25.1966 100.705 23.318C100.705 21.5152 101.068 19.9398 101.795 18.5914C102.523 17.2429 103.55 16.193 104.875 15.443C106.201 14.6932 107.765 14.318 109.568 14.318ZM77.4575 31.9996H71.185V14.5455H77.4575V31.9996ZM92.1537 14.318C93.3884 14.3181 94.4606 14.6024 95.3696 15.1705C96.2861 15.7311 96.9946 16.5041 97.4946 17.4889C98.002 18.4737 98.2521 19.5989 98.2446 20.8639V31.9996H91.9711V22.1823C91.9787 21.3188 91.7597 20.6405 91.3129 20.1481C90.8735 19.6556 90.259 19.4088 89.4711 19.4088C88.9563 19.4089 88.5057 19.5226 88.1196 19.7496C87.7408 19.9693 87.4491 20.2881 87.2446 20.7047C87.04 21.1138 86.9338 21.6065 86.9262 22.1823V31.9996H80.6537V14.5455H86.6078V17.8639H86.7895C87.1683 16.7579 87.835 15.8901 88.7895 15.2614C89.7516 14.6326 90.8734 14.318 92.1537 14.318ZM128.577 19.9547L131.258 14.5455H137.486L132.804 23.2731L137.713 31.9996H131.532L128.577 26.4547L125.713 31.9996H119.44L124.395 23.2731L119.758 14.5455H126.032L128.577 19.9547ZM14.4955 25.7906L0.898865 25.778C-0.942616 18.4528 -0.0230561 14.4918 4.28754 7.62756L14.4955 25.7906ZM109.705 18.7272C109.197 18.7272 108.731 18.8376 108.307 19.0573C107.883 19.2694 107.541 19.5642 107.284 19.943C107.034 20.3218 106.901 20.7655 106.886 21.2731H112.477C112.469 20.7732 112.341 20.3334 112.091 19.9547C111.849 19.5683 111.519 19.2694 111.102 19.0573C110.693 18.8376 110.227 18.7272 109.705 18.7272ZM5.51117 6.19592C10.796 0.889959 14.6166 -0.290881 22.6039 0.0562744L12.3373 18.1842L5.51117 6.19592ZM74.3207 6.99963C75.1768 6.99963 75.9039 7.28083 76.5024 7.84143C77.1084 8.40203 77.4116 9.07602 77.4116 9.86389C77.4115 10.6517 77.1084 11.3258 76.5024 11.8864C75.9039 12.4468 75.1767 12.7272 74.3207 12.7272C73.4724 12.7271 72.7451 12.4469 72.1391 11.8864C71.5331 11.3258 71.23 10.6517 71.2299 9.86389C71.2299 9.07613 71.5332 8.40199 72.1391 7.84143C72.7451 7.28088 73.4724 6.99969 74.3207 6.99963ZM24.2543 0.282837C31.4254 2.21373 34.3705 4.9633 38.1489 12.1461L17.6166 12.3805L24.2543 0.282837Z" fill="url(#paint0_linear_15_23)"/>
<defs>
<linearGradient id="paint0_linear_15_23" x1="-0.000549316" y1="-0.000366211" x2="138.808" y2="4.25298" gradientUnits="userSpaceOnUse">
<stop stop-color="#3F3B52"/>
<stop offset="1" stop-color="#736D94"/>
</linearGradient>
</defs>
</svg>
