<svg width="20" height="20" viewBox="0 0 20 20" fill="none" xmlns="http://www.w3.org/2000/svg">
<path d="M5 8.125C5 5.70875 6.95875 3.75 9.375 3.75C11.7913 3.75 13.75 5.70875 13.75 8.125C13.75 10.5413 11.7913 12.5 9.375 12.5C6.95875 12.5 5 10.5413 5 8.125ZM9.375 1.25C5.57804 1.25 2.5 4.32804 2.5 8.125C2.5 11.922 5.57804 15 9.375 15C10.4469 15 11.4616 14.7546 12.3659 14.3171L15.2421 18.2393C15.6504 18.7959 16.4326 18.9163 16.9893 18.508C17.546 18.0998 17.6664 17.3175 17.2581 16.7607L14.3809 12.8374C15.5399 11.6068 16.25 9.94881 16.25 8.125C16.25 4.32804 13.172 1.25 9.375 1.25Z" fill="#CAC7D8"/>
</svg>
